<?xml version="1.0" encoding="utf-8"?>
<svg width="59px" height="33.000008px" viewBox="0 0 59 33.000008" version="1.1" xmlns:xlink="http://www.w3.org/1999/xlink" xmlns="http://www.w3.org/2000/svg">
  <g id="Group">
    <path d="M4 0L18 0L18 3.8147e-05L18.9999 3.8147e-05L24.0385 11.2968L28.0772 3.8147e-05L35 2.67029e-05L38 11L42 3.43323e-05L54 7.62939e-06L54 4.00002L45 26L43.3124 26L41 26L49 4L45 4.00003L40 17.1513L35 17.1514L31.2436 4.80096L26.2961 17.1514L21.7641 17.1514L16.3623 4L0 4L4 0L4 0Z" id="Vector" fill="#FF9800" fill-rule="evenodd" stroke="none" />
    <path d="M8 7L12.7356 7L21.4546 28.3887L24.3717 28.4803L28.3611 18.8839L33.1925 18.8839L36.625 28.5L59 28.5L55.5 33L33.1925 33L30.5 25.02L27.5 33L18 33L8 7Z" id="Rectangle" fill="#0D1961" fill-rule="evenodd" stroke="none" />
  </g>
</svg>